<svg width="120" height="40" viewBox="0 0 120 40" fill="none" xmlns="http://www.w3.org/2000/svg">
<g clip-path="url(#clip0_83_11)">
<path d="M113 0.5H7C3.41015 0.5 0.5 3.41015 0.5 7V33C0.5 36.5899 3.41015 39.5 7 39.5H113C116.59 39.5 119.5 36.5899 119.5 33V7C119.5 3.41015 116.59 0.5 113 0.5Z" stroke="white"/>
<path d="M81.5259 19.2012V21.4922H80.0898V22.9946H81.5259V28.0996C81.5259 29.8428 82.3145 30.54 84.2983 30.54C84.647 30.54 84.979 30.4985 85.2695 30.4487V28.9629C85.0205 28.9878 84.8628 29.0044 84.5889 29.0044C83.7007 29.0044 83.3106 28.5894 83.3106 27.6431V22.9946H85.2695V21.4922H83.3106V19.2012H81.5259Z" fill="white"/>
<path d="M90.3234 30.6646C92.963 30.6646 94.5817 28.8965 94.5817 25.9663C94.5817 23.0527 92.9547 21.2764 90.3234 21.2764C87.6837 21.2764 86.0568 23.0527 86.0568 25.9663C86.0568 28.8965 87.6754 30.6646 90.3234 30.6646ZM90.3234 29.0791C88.7711 29.0791 87.8996 27.9419 87.8996 25.9663C87.8996 24.0073 88.7711 22.8618 90.3234 22.8618C91.8673 22.8618 92.7472 24.0073 92.7472 25.9663C92.7472 27.9336 91.8673 29.0791 90.3234 29.0791Z" fill="white"/>
<path d="M95.9666 30.4902H97.7513V25.1528C97.7513 23.8828 98.7058 23.0278 100.059 23.0278C100.374 23.0278 100.906 23.0859 101.055 23.1358V21.376C100.864 21.3262 100.524 21.3013 100.258 21.3013C99.0794 21.3013 98.075 21.9487 97.8177 22.8369H97.6848V21.4507H95.9666V30.4902Z" fill="white"/>
<path d="M105.486 22.7954C106.806 22.7954 107.669 23.7168 107.711 25.1362H103.145C103.245 23.7251 104.166 22.7954 105.486 22.7954ZM107.703 28.0498C107.371 28.7554 106.632 29.1455 105.553 29.1455C104.125 29.1455 103.204 28.1411 103.145 26.5557V26.4561H109.529V25.8335C109.529 22.9946 108.01 21.2764 105.495 21.2764C102.946 21.2764 101.328 23.1109 101.328 25.9995C101.328 28.8882 102.913 30.6646 105.503 30.6646C107.57 30.6646 109.014 29.6685 109.421 28.0498H107.703Z" fill="white"/>
<path d="M69.8223 27.1518C69.96 29.3715 71.8097 30.7911 74.5628 30.7911C77.5052 30.7911 79.3464 29.3027 79.3464 26.9281C79.3464 25.0611 78.2968 24.0287 75.7501 23.4351L74.3822 23.0995C72.7647 22.721 72.1108 22.2134 72.1108 21.3272C72.1108 20.2087 73.126 19.4774 74.6489 19.4774C76.0943 19.4774 77.0923 20.1915 77.2729 21.3358H79.1485C79.0367 19.2451 77.1955 17.7739 74.6747 17.7739C71.9646 17.7739 70.1578 19.2451 70.1578 21.4563C70.1578 23.2802 71.1817 24.3642 73.4272 24.8891L75.0274 25.2762C76.6707 25.6634 77.3934 26.2312 77.3934 27.1776C77.3934 28.2788 76.2577 29.079 74.7091 29.079C73.0486 29.079 71.8957 28.3305 71.7323 27.1518H69.8223Z" fill="white"/>
<path d="M51.335 21.3013C50.1064 21.3013 49.0439 21.9155 48.4961 22.9448H48.3633V21.4507H46.645V33.4951H48.4297V29.1206H48.5708C49.0439 30.0752 50.0649 30.6397 51.3516 30.6397C53.6343 30.6397 55.0869 28.8384 55.0869 25.9663C55.0869 23.0942 53.6343 21.3013 51.335 21.3013ZM50.8286 29.0376C49.3345 29.0376 48.3965 27.8589 48.3965 25.9746C48.3965 24.082 49.3345 22.9033 50.8369 22.9033C52.3477 22.9033 53.2524 24.0571 53.2524 25.9663C53.2524 27.8838 52.3477 29.0376 50.8286 29.0376Z" fill="white"/>
<path d="M61.3318 21.3013C60.1032 21.3013 59.0407 21.9155 58.4929 22.9448H58.3601V21.4507H56.6418V33.4951H58.4265V29.1206H58.5676C59.0407 30.0752 60.0617 30.6397 61.3484 30.6397C63.6311 30.6397 65.0837 28.8384 65.0837 25.9663C65.0837 23.0942 63.6311 21.3013 61.3318 21.3013ZM60.8254 29.0376C59.3313 29.0376 58.3933 27.8589 58.3933 25.9746C58.3933 24.082 59.3313 22.9033 60.8337 22.9033C62.3445 22.9033 63.2492 24.0571 63.2492 25.9663C63.2492 27.8838 62.3445 29.0376 60.8254 29.0376Z" fill="white"/>
<path d="M43.443 30.49H45.4907L41.0082 18.0752H38.9348L34.4523 30.49H36.4312L37.5754 27.1949H42.3074L43.443 30.49ZM39.8726 20.3293H40.0188L41.817 25.5774H38.0658L39.8726 20.3293Z" fill="white"/>
<path d="M35.6511 8.71094V14.7H37.8135C39.5981 14.7 40.6316 13.6001 40.6316 11.6868C40.6316 9.80249 39.5898 8.71094 37.8135 8.71094H35.6511ZM36.5808 9.55762H37.7097C38.9507 9.55762 39.6853 10.3462 39.6853 11.6992C39.6853 13.073 38.9631 13.8533 37.7097 13.8533H36.5808V9.55762Z" fill="white"/>
<path d="M43.7968 14.7869C45.1166 14.7869 45.9259 13.9029 45.9259 12.4378C45.9259 10.981 45.1125 10.0928 43.7968 10.0928C42.477 10.0928 41.6635 10.981 41.6635 12.4378C41.6635 13.9029 42.4728 14.7869 43.7968 14.7869ZM43.7968 13.9942C43.0207 13.9942 42.5849 13.4256 42.5849 12.4378C42.5849 11.4583 43.0207 10.8855 43.7968 10.8855C44.5688 10.8855 45.0087 11.4583 45.0087 12.4378C45.0087 13.4214 44.5688 13.9942 43.7968 13.9942Z" fill="white"/>
<path d="M52.8181 10.1802H51.9257L51.1206 13.6292H51.05L50.1203 10.1802H49.2653L48.3356 13.6292H48.2692L47.4599 10.1802H46.5551L47.8002 14.7H48.7175L49.6472 11.3713H49.7177L50.6516 14.7H51.5771L52.8181 10.1802Z" fill="white"/>
<path d="M53.8456 14.6998H54.7379V12.056C54.7379 11.3504 55.1571 10.9104 55.817 10.9104C56.477 10.9104 56.7924 11.2715 56.7924 11.9978V14.6998H57.6847V11.7737C57.6847 10.6988 57.1286 10.0928 56.12 10.0928C55.4394 10.0928 54.9911 10.3958 54.7711 10.898H54.7047V10.18H53.8456V14.6998Z" fill="white"/>
<path d="M59.09 14.6998H59.9824V8.41602H59.09V14.6998Z" fill="white"/>
<path d="M63.3384 14.7869C64.6582 14.7869 65.4675 13.9029 65.4675 12.4378C65.4675 10.981 64.6541 10.0928 63.3384 10.0928C62.0186 10.0928 61.2051 10.981 61.2051 12.4378C61.2051 13.9029 62.0144 14.7869 63.3384 14.7869ZM63.3384 13.9942C62.5623 13.9942 62.1265 13.4256 62.1265 12.4378C62.1265 11.4583 62.5623 10.8855 63.3384 10.8855C64.1104 10.8855 64.5503 11.4583 64.5503 12.4378C64.5503 13.4214 64.1104 13.9942 63.3384 13.9942Z" fill="white"/>
<path d="M68.1263 14.0232C67.6407 14.0232 67.2879 13.7867 67.2879 13.3799C67.2879 12.9815 67.5701 12.7698 68.1927 12.7283L69.2967 12.6578V13.0354C69.2967 13.5957 68.7986 14.0232 68.1263 14.0232ZM67.898 14.7745C68.4915 14.7745 68.9854 14.5171 69.2552 14.0647H69.3257V14.6998H70.1849V11.6119C70.1849 10.6573 69.5457 10.0928 68.4126 10.0928C67.3875 10.0928 66.657 10.5909 66.5657 11.367H67.429C67.5286 11.0474 67.8731 10.8648 68.3711 10.8648C68.9812 10.8648 69.2967 11.1346 69.2967 11.6119V12.002L68.0723 12.0726C66.9974 12.139 66.3914 12.608 66.3914 13.4214C66.3914 14.2474 67.0264 14.7745 67.898 14.7745Z" fill="white"/>
<path d="M73.213 14.7745C73.8355 14.7745 74.3626 14.4798 74.6324 13.9859H74.703V14.6998H75.558V8.41602H74.6656V10.898H74.5992C74.3543 10.3999 73.8314 10.1053 73.213 10.1053C72.0716 10.1053 71.337 11.0101 71.337 12.4378C71.337 13.8697 72.0633 14.7745 73.213 14.7745ZM73.4662 10.9063C74.2132 10.9063 74.6822 11.4998 74.6822 12.4419C74.6822 13.3882 74.2174 13.9734 73.4662 13.9734C72.7108 13.9734 72.2584 13.3965 72.2584 12.4378C72.2584 11.4873 72.7149 10.9063 73.4662 10.9063Z" fill="white"/>
<path d="M81.3444 14.7869C82.6643 14.7869 83.4736 13.9029 83.4736 12.4378C83.4736 10.981 82.6601 10.0928 81.3444 10.0928C80.0246 10.0928 79.2111 10.981 79.2111 12.4378C79.2111 13.9029 80.0205 14.7869 81.3444 14.7869ZM81.3444 13.9942C80.5683 13.9942 80.1325 13.4256 80.1325 12.4378C80.1325 11.4583 80.5683 10.8855 81.3444 10.8855C82.1164 10.8855 82.5563 11.4583 82.5563 12.4378C82.5563 13.4214 82.1164 13.9942 81.3444 13.9942Z" fill="white"/>
<path d="M84.6548 14.6998H85.5471V12.056C85.5471 11.3504 85.9663 10.9104 86.6262 10.9104C87.2861 10.9104 87.6016 11.2715 87.6016 11.9978V14.6998H88.4939V11.7737C88.4939 10.6988 87.9377 10.0928 86.9292 10.0928C86.2485 10.0928 85.8003 10.3958 85.5803 10.898H85.5139V10.18H84.6548V14.6998Z" fill="white"/>
<path d="M92.6036 9.05566V10.2011H91.8856V10.9523H92.6036V13.5048C92.6036 14.3764 92.9979 14.7251 93.9898 14.7251C94.1642 14.7251 94.3302 14.7043 94.4754 14.6794V13.9365C94.3509 13.9489 94.2721 13.9572 94.1351 13.9572C93.691 13.9572 93.4959 13.7497 93.4959 13.2766V10.9523H94.4754V10.2011H93.4959V9.05566H92.6036Z" fill="white"/>
<path d="M95.6732 14.6998H96.5656V12.0601C96.5656 11.3753 96.9723 10.9146 97.7028 10.9146C98.3336 10.9146 98.6698 11.2798 98.6698 12.002V14.6998H99.5622V11.782C99.5622 10.7071 98.9687 10.097 98.0058 10.097C97.3251 10.097 96.8478 10.3999 96.6278 10.9063H96.5573V8.41602H95.6732V14.6998Z" fill="white"/>
<path d="M102.781 10.8523C103.441 10.8523 103.873 11.313 103.894 12.0227H101.611C101.661 11.3172 102.121 10.8523 102.781 10.8523ZM103.889 13.4795C103.723 13.8323 103.354 14.0274 102.814 14.0274C102.101 14.0274 101.64 13.5252 101.611 12.7325V12.6827H104.802V12.3714C104.802 10.9519 104.043 10.0928 102.785 10.0928C101.511 10.0928 100.702 11.0101 100.702 12.4544C100.702 13.8987 101.495 14.7869 102.789 14.7869C103.823 14.7869 104.545 14.2889 104.748 13.4795H103.889Z" fill="white"/>
<path d="M24.769 20.3008C24.7907 18.6198 25.6934 17.0292 27.1256 16.1488C26.2221 14.8584 24.7088 14.0403 23.1344 13.9911C21.4552 13.8148 19.8272 14.9959 18.9715 14.9959C18.0992 14.9959 16.7817 14.0086 15.363 14.0378C13.5137 14.0975 11.7898 15.1489 10.8901 16.7656C8.95605 20.1141 10.3987 25.0351 12.2513 27.7417C13.1782 29.0671 14.2615 30.5475 15.6789 30.495C17.066 30.4375 17.584 29.6105 19.2583 29.6105C20.9171 29.6105 21.4031 30.495 22.8493 30.4616C24.3377 30.4375 25.2754 29.1304 26.1698 27.7925C26.8358 26.8481 27.3483 25.8044 27.6882 24.7C25.9391 23.9602 24.771 22.2 24.769 20.3008Z" fill="white"/>
<path d="M22.0373 12.2113C22.8489 11.2371 23.2487 9.98493 23.1518 8.7207C21.912 8.85092 20.7668 9.44348 19.9443 10.3803C19.14 11.2956 18.7214 12.5257 18.8006 13.7417C20.0408 13.7544 21.2601 13.1779 22.0373 12.2113Z" fill="white"/>
</g>
<defs>
<clipPath id="clip0_83_11">
<rect width="120" height="40" fill="white"/>
</clipPath>
</defs>
</svg>
