<svg width="76" height="76" viewBox="0 0 76 76" fill="none" xmlns="http://www.w3.org/2000/svg">
<rect width="76" height="76" rx="38" fill="#FF0000"/>
<path d="M28.4703 16.186C28.939 14.975 28.3336 13.6176 27.1229 13.1587C25.9121 12.6997 24.5549 13.2954 24.096 14.5063L20.9227 22.7679C20.1513 24.7893 20.6298 27.0744 22.1627 28.5979L27.7673 34.2032L19.917 31.5861C19.6827 31.508 19.4971 31.3224 19.419 31.088L17.5736 25.5413C17.1635 24.3108 15.8356 23.6468 14.6054 24.0569C13.3751 24.4671 12.7111 25.7952 13.1212 27.0256L14.9666 32.5724C15.5134 34.2032 16.7925 35.4825 18.4231 36.0294L24.3401 38.002L18.4329 39.9746C16.8023 40.5215 15.5232 41.8008 14.9764 43.4316L13.1212 48.9784C12.7111 50.2088 13.3751 51.5369 14.6054 51.9471C15.8356 52.3572 17.1635 51.6932 17.5736 50.4627L19.419 44.9159C19.4971 44.6816 19.6827 44.496 19.917 44.4179L27.7673 41.8008L22.153 47.4061C20.6298 48.9393 20.1416 51.2244 20.9227 53.2361L24.096 61.4977C24.5647 62.7086 25.9121 63.3043 27.1229 62.8453C28.3336 62.3864 28.9292 61.029 28.4703 59.818L25.297 51.5565C25.1896 51.2635 25.2579 50.9412 25.4727 50.7264L28.6265 47.5624C28.7242 52.6502 32.8836 56.7517 38 56.7517C43.1164 56.7517 47.2758 52.66 47.3735 47.5624L50.5273 50.7166C50.7421 50.9315 50.8104 51.2635 50.703 51.5467L47.5297 59.8083C47.061 61.0192 47.6664 62.3766 48.8771 62.8356C50.0879 63.2945 51.4451 62.6988 51.904 61.4879L55.0773 53.2361C55.8487 51.2147 55.3702 48.9295 53.8373 47.4061L48.2327 41.8008L56.083 44.4179C56.3173 44.496 56.5029 44.6816 56.581 44.9159L58.4264 50.4627C58.8365 51.6932 60.1644 52.3572 61.3946 51.9471C62.6249 51.5369 63.2889 50.2088 62.8788 48.9784L61.0334 43.4316C60.4866 41.8008 59.2075 40.5215 57.5769 39.9746L51.6599 38.002L57.5671 36.0294C59.1977 35.4825 60.4768 34.2032 61.0236 32.5724L62.869 27.0256C63.2791 25.7952 62.6151 24.4671 61.3849 24.0569C60.1546 23.6468 58.8267 24.3108 58.4166 25.5413L56.5712 31.088C56.4931 31.3224 56.3076 31.508 56.0732 31.5861L48.223 34.2032L53.8275 28.5979C55.3507 27.0744 55.8389 24.7893 55.0675 22.7679L51.904 14.5063C51.4353 13.2954 50.0879 12.6899 48.8771 13.1587C47.6664 13.6274 47.0708 14.975 47.5297 16.186L50.703 24.4475C50.8104 24.7405 50.7421 25.0628 50.5273 25.2776L45.8112 30.0041V28.6272C45.8112 25.5217 43.9951 22.8362 41.3686 21.5765C40.4801 21.1468 39.5622 21.8987 39.5622 22.8851V23.9397C39.5622 24.7991 38.8592 25.5022 38 25.5022C37.1408 25.5022 36.4378 24.7991 36.4378 23.9397V22.8851C36.4378 21.8987 35.5199 21.1566 34.6314 21.5765C32.0049 22.8362 30.1888 25.5217 30.1888 28.6272V30.0041L25.4727 25.2874C25.2579 25.0725 25.1896 24.7405 25.297 24.4573L28.4703 16.1957V16.186Z" fill="black"/>
<path d="M35.7434 47.0641C34.5408 48.7261 33.01 49.6614 32.3279 49.1551C31.6434 48.6464 32.0653 46.8906 33.2703 45.2286C34.4728 43.5665 36.0036 42.6312 36.6857 43.1375C37.3679 43.6439 36.946 45.402 35.7434 47.0641ZM43.9762 45.7208C42.2462 48.6136 39.4777 50.1209 37.7758 49.0871C37.1898 48.7308 36.8076 48.1213 36.6271 47.3571C35.8395 48.8761 34.4517 50.0248 32.7803 50.4796C33.9477 51.8697 35.6895 52.7511 37.6328 52.7511C41.1491 52.7511 43.9996 49.8654 43.9996 46.3069C44.002 46.1076 43.9926 45.9131 43.9762 45.7208Z" fill="white"/>
</svg>
