<svg width="100" height="100" viewBox="0 0 100 100" fill="none" xmlns="http://www.w3.org/2000/svg">
<circle cx="50" cy="50" r="50" fill="#FF0000"/>
<path d="M39 66.14C47.52 69.1 53.9 71.1 58.14 72.14C62.42 73.22 66.08 73.76 69.12 73.76C72.2 73.76 75.58 73.06 79.26 71.66L79.56 72.14C74.68 75.5 69.76 77.18 64.8 77.18C59.72 77.18 53.94 75.6 47.46 72.44C42.46 69.96 39.36 68.46 38.16 67.94C33.88 66.02 30.36 65.04 27.6 65V64.4H28.38C29.42 64.4 30.3 64.04 31.02 63.32C31.78 62.6 32.18 61.7 32.22 60.62V27.38C32.18 26.34 31.78 25.46 31.02 24.74C30.3 23.98 29.42 23.6 28.38 23.6H27.6V23H40.74V23.6H39.96C38.92 23.6 38.02 23.98 37.26 24.74C36.5 25.46 36.12 26.34 36.12 27.38V62C36.12 62.72 36.16 63.28 36.24 63.68C36.32 64.04 36.58 64.46 37.02 64.94C37.46 65.42 38.12 65.82 39 66.14Z" fill="white"/>
<path d="M27.52 56.94C26.28 55.46 25.66 54 25.66 52.56C25.66 51.08 26 49.82 26.68 48.78C27.36 47.7 28.46 46.8 29.98 46.08C31.5 45.32 33.22 44.94 35.14 44.94H59.74C60.98 44.94 62.34 44.82 63.82 44.58C65.34 44.34 66.4 44.1 67 43.86V51.42L66.4 51.36V50.34C66.4 49.38 66.06 48.56 65.38 47.88C64.7 47.16 63.9 46.78 62.98 46.74H51.58V82.68C51.62 84.12 52.26 85.2 53.5 85.92C54.1 86.24 54.74 86.4 55.42 86.4H56.2V87H43.06V86.4H43.84C44.88 86.4 45.76 86.04 46.48 85.32C47.24 84.6 47.64 83.74 47.68 82.74V46.74H35.14C31.94 46.74 29.62 47.76 28.18 49.8C27.42 50.84 27.04 51.94 27.04 53.1C27.04 54.22 27.36 55.4 28 56.64L27.52 56.94Z" fill="white"/>
<path d="M71.3652 18.1535C73.6786 18.6032 75.42 19.4884 76.5895 20.8091C77.759 22.1299 78.1679 23.695 77.8161 25.5044C77.5089 27.0849 76.6291 28.554 75.1767 29.9118C74.6531 30.4043 74.1909 30.8255 73.7901 31.1754C73.4166 31.5069 72.8765 31.9011 72.1697 32.358C71.4858 32.8193 70.9523 33.1791 70.5693 33.4374C70.1908 33.6729 69.6159 34.0009 68.8449 34.4215C68.0738 34.8421 67.5422 35.131 67.2502 35.2881C66.9626 35.4224 66.4377 35.6769 65.6756 36.0517C64.9363 36.4309 64.5142 36.646 64.4092 36.6969L72.4487 38.2596C73.4336 38.4511 74.2229 38.4262 74.8164 38.1851C75.4374 37.9254 76.1642 37.3655 76.997 36.5053L77.3406 36.5721L74.8233 40.7179L60.5651 37.9464L60.6252 37.6372C69.6823 32.7421 74.5493 28.5538 75.226 25.0723C75.5332 23.4919 75.3248 22.1796 74.6007 21.1356C73.9039 20.0732 72.8111 19.3972 71.3223 19.1078C69.6274 18.7784 68.2096 18.9188 67.0688 19.529C65.9555 20.1207 65.2814 21.1426 65.0468 22.5945L64.7032 22.5277L64.8003 18.9097C65.553 18.4618 66.549 18.1681 67.7883 18.0287C69.0506 17.8937 70.2429 17.9353 71.3652 18.1535Z" fill="white"/>
</svg>
