<svg width="80" height="61" viewBox="0 0 80 61" fill="none" xmlns="http://www.w3.org/2000/svg">
<path d="M34.6667 60.8665C36.1667 61.3927 37.7778 60.2987 37.7778 58.7199V6.45365C37.7778 5.87199 37.5556 5.29033 37.0833 4.93025C34.3611 2.76981 28.1111 0 20 0C12.9861 0 6.43056 1.84192 2.51389 3.33762C0.944445 3.94697 0 5.49806 0 7.1738V58.4567C0 60.1048 1.77778 61.2542 3.34722 60.7418C7.72222 59.2877 14.6528 57.612 20 57.612C24.7083 57.612 30.9722 59.5508 34.6667 60.8665ZM45.3333 60.8665C49.0278 59.5508 55.2917 57.612 60 57.612C65.3472 57.612 72.2778 59.2877 76.6528 60.7418C78.2222 61.2681 80 60.1048 80 58.4567V7.1738C80 5.49806 79.0556 3.94697 77.4861 3.35146C73.5695 1.84192 67.0139 0 60 0C51.8889 0 45.6389 2.76981 42.9167 4.93025C42.4583 5.29033 42.2222 5.87199 42.2222 6.45365V58.7199C42.2222 60.2987 43.8472 61.3927 45.3333 60.8665Z" fill="#10375C"/>
</svg>
