<svg width="80" height="91" viewBox="0 0 80 91" fill="none" xmlns="http://www.w3.org/2000/svg">
<path d="M17.1429 0C7.67857 0 0 7.64258 0 17.0625V73.9375C0 83.3574 7.67857 91 17.1429 91H68.5714H74.2857C77.4464 91 80 88.4584 80 85.3125C80 82.1666 77.4464 79.625 74.2857 79.625V68.25C77.4464 68.25 80 65.7084 80 62.5625V5.6875C80 2.5416 77.4464 0 74.2857 0H68.5714H17.1429ZM17.1429 68.25H62.8571V79.625H17.1429C13.9821 79.625 11.4286 77.0834 11.4286 73.9375C11.4286 70.7916 13.9821 68.25 17.1429 68.25ZM22.8571 25.5938C22.8571 24.0297 24.1429 22.75 25.7143 22.75H60C61.5714 22.75 62.8571 24.0297 62.8571 25.5938C62.8571 27.1578 61.5714 28.4375 60 28.4375H25.7143C24.1429 28.4375 22.8571 27.1578 22.8571 25.5938ZM25.7143 34.125H60C61.5714 34.125 62.8571 35.4047 62.8571 36.9688C62.8571 38.5328 61.5714 39.8125 60 39.8125H25.7143C24.1429 39.8125 22.8571 38.5328 22.8571 36.9688C22.8571 35.4047 24.1429 34.125 25.7143 34.125Z" fill="#10375C"/>
</svg>
