<svg width="105" height="105" viewBox="0 0 105 105" fill="none" xmlns="http://www.w3.org/2000/svg">
<path d="M65.625 19.6875H39.375L29.6543 5.10645C28.1982 2.91211 29.7568 0 32.3818 0H72.6182C75.2432 0 76.8018 2.91211 75.3457 5.10645L65.625 19.6875ZM39.375 26.25H65.625C66.4043 26.7627 67.2861 27.3369 68.291 27.9727C79.9189 35.417 105 51.4541 105 85.3125C105 96.1816 96.1816 105 85.3125 105H19.6875C8.81836 105 0 96.1816 0 85.3125C0 51.4541 25.0811 35.417 36.709 27.9727C37.6934 27.3369 38.5957 26.7627 39.375 26.25ZM56.6016 44.2969C56.6016 42.041 54.7559 40.1953 52.5 40.1953C50.2441 40.1953 48.3984 42.041 48.3984 44.2969V47.168C46.8398 47.5166 45.2813 48.0703 43.8457 48.9111C40.9951 50.6133 38.5342 53.5869 38.5547 57.9141C38.5752 62.0771 41.0156 64.7021 43.6201 66.2607C45.876 67.6143 48.6855 68.4756 50.9209 69.1318L51.2695 69.2344C53.8535 70.0137 55.7402 70.6289 57.0117 71.4287C58.0576 72.085 58.2012 72.5361 58.2217 73.1104C58.2422 74.1357 57.8525 74.751 57.0117 75.2637C55.9863 75.8994 54.3662 76.2891 52.623 76.2275C50.3467 76.1455 48.2139 75.4277 45.4248 74.4844C44.9531 74.3203 44.4609 74.1562 43.9482 73.9922C41.7949 73.2744 39.4775 74.4434 38.7598 76.5762C38.042 78.709 39.2109 81.0469 41.3438 81.7647C41.7334 81.8877 42.1641 82.0312 42.5947 82.1953C44.2969 82.79 46.2656 83.4668 48.3779 83.918V86.9121C48.3779 89.168 50.2236 91.0137 52.4795 91.0137C54.7354 91.0137 56.5811 89.168 56.5811 86.9121V84.082C58.2217 83.7334 59.8623 83.1592 61.3389 82.2363C64.2715 80.4111 66.4863 77.2939 66.4248 73.0078C66.3633 68.8447 64.0254 66.1582 61.3799 64.4766C59.0215 63 56.0684 62.0977 53.7715 61.4004L53.6279 61.3594C51.0029 60.5596 49.1367 59.9854 47.8242 59.2061C46.7578 58.5703 46.7373 58.2012 46.7373 57.832C46.7373 57.0732 47.0244 56.499 48.0088 55.9248C49.1162 55.2686 50.7979 54.8789 52.418 54.8994C54.3867 54.9199 56.5605 55.3506 58.8164 55.9658C61.0107 56.54 63.2461 55.248 63.8408 53.0537C64.4355 50.8594 63.123 48.624 60.9287 48.0293C59.5957 47.6807 58.1191 47.332 56.6016 47.0654V44.2148V44.2969Z" fill="#10375C"/>
</svg>
