<svg width="80" height="80" viewBox="0 0 80 80" fill="none" xmlns="http://www.w3.org/2000/svg">
<path d="M65.0032 32.4952C65.0032 39.6661 62.6749 46.2901 58.7529 51.6643L78.5351 71.4583C80.4883 73.4111 80.4883 76.5825 78.5351 78.5354C76.5819 80.4882 73.4098 80.4882 71.4566 78.5354L51.6744 58.7414C46.2991 62.6783 39.6738 64.9905 32.5016 64.9905C14.5476 64.9905 0 50.4457 0 32.4952C0 14.5447 14.5476 0 32.5016 0C50.4556 0 65.0032 14.5447 65.0032 32.4952ZM32.5016 54.9919C35.4565 54.9919 38.3824 54.4101 41.1124 53.2795C43.8423 52.1489 46.3228 50.4918 48.4123 48.4028C50.5017 46.3138 52.1591 43.8338 53.2899 41.1044C54.4207 38.3749 55.0027 35.4495 55.0027 32.4952C55.0027 29.5409 54.4207 26.6155 53.2899 23.8861C52.1591 21.1567 50.5017 18.6767 48.4123 16.5877C46.3228 14.4987 43.8423 12.8416 41.1124 11.711C38.3824 10.5804 35.4565 9.99854 32.5016 9.99854C29.5467 9.99854 26.6207 10.5804 23.8908 11.711C21.1608 12.8416 18.6803 14.4987 16.5909 16.5877C14.5015 18.6767 12.8441 21.1567 11.7133 23.8861C10.5825 26.6155 10.0005 29.5409 10.0005 32.4952C10.0005 35.4495 10.5825 38.3749 11.7133 41.1044C12.8441 43.8338 14.5015 46.3138 16.5909 48.4028C18.6803 50.4918 21.1608 52.1489 23.8908 53.2795C26.6207 54.4101 29.5467 54.9919 32.5016 54.9919Z" fill="#10375C"/>
</svg>
