<svg width="74" height="107" viewBox="0 0 74 107" fill="none" xmlns="http://www.w3.org/2000/svg">
<path d="M36.6667 0C25.625 0 16.6667 8.98633 16.6667 20.0625V53.5C16.6667 64.5762 25.625 73.5625 36.6667 73.5625C47.7083 73.5625 56.6667 64.5762 56.6667 53.5V20.0625C56.6667 8.98633 47.7083 0 36.6667 0ZM10 45.1406C10 42.3611 7.77083 40.125 5 40.125C2.22917 40.125 0 42.3611 0 45.1406V53.5C0 72.1205 13.7917 87.5018 31.6667 89.9469V96.9688H21.6667C18.8958 96.9688 16.6667 99.2049 16.6667 101.984C16.6667 104.764 18.8958 107 21.6667 107H36.6667H51.6667C54.4375 107 56.6667 104.764 56.6667 101.984C56.6667 99.2049 54.4375 96.9688 51.6667 96.9688H41.6667V89.9469C59.5417 87.5018 73.3333 72.1205 73.3333 53.5V45.1406C73.3333 42.3611 71.1042 40.125 68.3333 40.125C65.5625 40.125 63.3333 42.3611 63.3333 45.1406V53.5C63.3333 68.2752 51.3958 80.25 36.6667 80.25C21.9375 80.25 10 68.2752 10 53.5V45.1406Z" fill="#10375C"/>
</svg>
